<svg width="254" height="71" viewBox="0 0 254 71" fill="none" xmlns="http://www.w3.org/2000/svg">
<path d="M66.5 0.761414H243.5C249.023 0.761414 253.5 5.74658 253.5 11.896V59.7746C253.5 65.924 249.023 70.9091 243.5 70.9091H66.5V0.761414Z" fill="#456763"/>
<path d="M10.5 2.43158H65V69.2389H10.5C5.80558 69.2389 2 65.0015 2 59.7745V11.896C2 6.66895 5.80558 2.43158 10.5 2.43158Z" fill="white" stroke="#456763" stroke-width="3"/>
<path d="M83.728 39.1544C84.2407 39.2559 84.8844 39.3066 85.6592 39.3066C87.6074 39.3066 89.1911 38.5011 90.4102 36.89C91.6292 35.2661 92.2388 33.2174 92.2388 30.7436C92.2388 28.27 91.4925 26.3099 90 24.8638C88.5189 23.4049 86.3143 22.6755 83.3862 22.6755C82.1216 22.6755 81.005 22.8277 80.0366 23.1321C79.0682 23.4366 78.3049 23.8362 77.7466 24.331C77.1997 24.8257 76.7896 25.3585 76.5161 25.9294C76.2427 26.4875 76.106 27.0648 76.106 27.661C76.106 28.2065 76.2313 28.6442 76.4819 28.974C76.7326 29.2911 77.0744 29.4497 77.5073 29.4497C77.6213 29.4497 77.7295 29.4433 77.832 29.4306C77.9346 29.4054 78.0029 29.38 78.0371 29.3546L78.1055 29.3355C78.1283 29.4117 78.1396 29.5258 78.1396 29.678C78.1396 30.2108 77.9004 30.712 77.4219 31.1813C76.9434 31.6381 76.2939 31.8663 75.4736 31.8663C74.3457 31.8663 73.4513 31.5111 72.7905 30.8007C72.1297 30.0903 71.7993 29.1452 71.7993 27.9654C71.7993 27.1789 71.9474 26.4304 72.2437 25.72C72.5285 24.997 72.9842 24.3183 73.6108 23.684C74.2375 23.0497 75.0008 22.4978 75.9009 22.0285C76.8009 21.5591 77.9004 21.1912 79.1992 20.9248C80.498 20.6584 81.9279 20.5252 83.4888 20.5252C85.8586 20.5252 87.9321 20.7917 89.7095 21.3244C91.4868 21.8445 92.9053 22.5867 93.9648 23.5508C95.0244 24.5022 95.8105 25.5996 96.3232 26.8427C96.8473 28.0733 97.1094 29.4497 97.1094 30.972C97.1094 34.0674 96.141 36.5918 94.2041 38.5455C92.2673 40.4863 89.6981 41.4568 86.4966 41.4568C85.4484 41.4568 84.423 41.3617 83.4204 41.1715L82.7197 45.6622C82.5944 46.4742 82.526 47.1909 82.5146 47.8124C82.5146 48.4214 82.5431 48.8337 82.6001 49.0494L82.6855 49.3728C82.3096 49.6266 81.6431 49.7534 80.686 49.7534C79.4214 49.7534 78.6068 49.4363 78.2422 48.802C77.889 48.1676 77.832 47.0703 78.0713 45.51L80.686 28.7075C80.8114 27.9084 80.874 27.2043 80.874 26.5954C80.8854 25.9865 80.8626 25.5742 80.8057 25.3585L80.7202 25.0541C81.0962 24.7876 81.7627 24.6545 82.7197 24.6545C83.9844 24.6545 84.799 24.9779 85.1636 25.6249C85.5282 26.2592 85.5908 27.3502 85.3516 28.8978L83.728 39.1544ZM109.636 39.0783H103.535L102.493 42.3132C102.094 43.5437 101.707 44.6029 101.331 45.491C100.966 46.3663 100.618 47.083 100.288 47.6412C99.9577 48.1867 99.6102 48.618 99.2456 48.9351C98.8924 49.2524 98.5506 49.468 98.2202 49.5822C97.8898 49.6963 97.5138 49.7534 97.0923 49.7534C96.3631 49.7534 95.7764 49.4806 95.332 48.9351C94.8763 48.377 94.6484 47.6475 94.6484 46.7469C94.6484 46.3409 94.6883 45.9794 94.7681 45.6622C94.8478 45.3324 94.9333 45.1104 95.0244 44.9962L95.144 44.8059C95.3947 45.0089 95.7992 45.1104 96.3574 45.1104C97.2005 45.1104 98.0265 44.66 98.8354 43.7593C99.6558 42.8587 100.465 41.3237 101.262 39.1544C100.795 39.2051 100.356 39.3066 99.9463 39.4588C99.5475 39.6111 99.2627 39.7442 99.0918 39.8585L98.8184 40.0488C98.4424 39.7063 98.2544 39.1861 98.2544 38.4884C98.2544 37.7018 98.505 37.0803 99.0063 36.6235C99.5076 36.1542 100.191 35.9195 101.057 35.9195C101.479 35.9195 101.9 35.9576 102.322 36.0336L104.971 27.8132C105.802 25.2253 106.868 23.3669 108.167 22.2378C109.465 21.0961 111.328 20.5252 113.755 20.5252C115.122 20.5252 115.988 20.8487 116.353 21.4957C116.729 22.1426 116.797 23.2337 116.558 24.7686L113.687 43.1314C113.527 44.2224 113.59 45.0343 113.875 45.567C114.171 46.0999 114.632 46.3663 115.259 46.3663C115.783 46.3663 116.313 46.1506 116.848 45.7194C117.395 45.2753 117.828 44.8186 118.147 44.3493C118.466 43.8798 118.728 43.4232 118.933 42.9792C119.446 42.9792 119.668 43.3153 119.6 43.9877C119.52 44.584 119.292 45.2182 118.916 45.8906C118.551 46.5629 118.09 47.1909 117.532 47.7745C116.985 48.3453 116.33 48.821 115.566 49.2016C114.803 49.5695 114.04 49.7534 113.276 49.7534C112.023 49.7534 111.009 49.3157 110.234 48.4404C109.46 47.5651 109.072 46.3917 109.072 44.9201C109.072 43.5373 109.237 41.7296 109.568 39.4969L109.636 39.0783ZM104.407 36.3952C106.332 36.7251 108.178 36.9027 109.944 36.928L111.909 24.5783C111.955 24.2358 111.989 23.906 112.012 23.5889C112.046 23.2717 112.069 23.0371 112.08 22.8847V22.6755C110.986 22.6755 110.012 23.1575 109.158 24.1217C108.315 25.0858 107.665 26.2909 107.209 27.7372L104.407 36.3952ZM127.871 20.5252C128.976 20.5252 130.902 20.6774 133.647 20.9819C136.393 21.2737 139.042 21.4195 141.594 21.4195C142.198 21.4195 142.773 21.3688 143.32 21.2673C143.867 21.1532 144.266 21.0453 144.517 20.9439L144.875 20.7917C145.138 21.0834 145.269 21.5147 145.269 22.0856C145.269 23.1766 144.921 24.0582 144.226 24.7306C143.531 25.4029 142.466 25.7391 141.03 25.7391C140.632 25.7391 140.238 25.72 139.851 25.682C139.475 25.644 139.156 25.6059 138.894 25.5678C138.632 25.5297 138.307 25.4537 137.92 25.3395C137.544 25.2253 137.271 25.1428 137.1 25.0922C136.929 25.0287 136.615 24.9209 136.16 24.7686C135.704 24.6037 135.391 24.4896 135.22 24.4261L131.887 45.6622C131.762 46.4742 131.694 47.1909 131.682 47.8124C131.682 48.4214 131.711 48.8337 131.768 49.0494L131.853 49.3728C131.477 49.6266 130.811 49.7534 129.854 49.7534C128.589 49.7534 127.774 49.4363 127.41 48.802C127.056 48.1676 127 47.0703 127.239 45.51L130.52 24.5783L130.708 23.056C129.512 22.8023 128.543 22.6755 127.803 22.6755C126.276 22.6755 125.074 23.0814 124.197 23.8933C123.331 24.7052 122.898 25.701 122.898 26.8808C122.898 27.4263 123.023 27.864 123.274 28.1938C123.525 28.5109 123.866 28.6696 124.299 28.6696C124.413 28.6696 124.521 28.6632 124.624 28.6505C124.727 28.6252 124.795 28.6061 124.829 28.5934L124.897 28.5553C124.92 28.6315 124.932 28.7456 124.932 28.8978C124.932 29.4306 124.692 29.9318 124.214 30.4011C123.735 30.8579 123.086 31.0862 122.266 31.0862C121.138 31.0862 120.243 30.731 119.583 30.0205C118.922 29.3102 118.591 28.365 118.591 27.1852C118.591 25.1809 119.389 23.5698 120.984 22.3519C122.579 21.1342 124.875 20.5252 127.871 20.5252ZM162.41 37.6321C163.298 37.8604 164.067 38.2854 164.717 38.907C165.378 39.5287 165.845 40.3278 166.118 41.3046L166.716 43.4359C166.99 44.4253 167.303 45.1612 167.656 45.6432C168.021 46.1252 168.477 46.3663 169.023 46.3663C169.399 46.3663 169.781 46.2395 170.168 45.9857C170.556 45.7319 170.898 45.4148 171.194 45.0343C171.49 44.641 171.741 44.2731 171.946 43.9306C172.162 43.5881 172.333 43.271 172.458 42.9792C172.971 42.9792 173.193 43.3153 173.125 43.9877C173.068 44.5459 172.863 45.1548 172.51 45.8145C172.157 46.4742 171.712 47.1021 171.177 47.6983C170.653 48.2819 170.02 48.7702 169.28 49.1635C168.551 49.5568 167.81 49.7534 167.058 49.7534C165.839 49.7534 164.825 49.3348 164.016 48.4975C163.207 47.6475 162.626 46.4551 162.273 44.9201L161.606 42.0848C161.344 40.9685 161.008 40.1565 160.598 39.6491C160.199 39.1417 159.624 38.888 158.872 38.888H156.873L155.83 45.6622C155.705 46.4742 155.636 47.1909 155.625 47.8124C155.625 48.4214 155.653 48.8337 155.71 49.0494L155.796 49.3728C155.42 49.6266 154.753 49.7534 153.796 49.7534C152.532 49.7534 151.717 49.4363 151.353 48.802C150.999 48.1676 150.942 47.0703 151.182 45.51L153.796 28.7075C153.922 27.9084 153.984 27.2043 153.984 26.5954C153.996 25.9865 153.973 25.5742 153.916 25.3585L153.831 25.0541C154.207 24.7876 154.873 24.6545 155.83 24.6545C157.095 24.6545 157.909 24.9779 158.274 25.6249C158.639 26.2592 158.701 27.3502 158.462 28.8978L157.231 36.7377H158.564C160.638 36.7377 162.284 36.0717 163.503 34.7397C164.734 33.4077 165.349 31.6063 165.349 29.3355C165.349 24.9335 162.398 22.7135 156.497 22.6755C155.232 22.6755 154.11 22.8277 153.13 23.1321C152.15 23.4366 151.387 23.8425 150.84 24.35C150.293 24.8447 149.883 25.3775 149.609 25.9484C149.347 26.5066 149.216 27.0774 149.216 27.661C149.216 28.2065 149.342 28.6442 149.592 28.974C149.843 29.2911 150.185 29.4497 150.618 29.4497C150.732 29.4497 150.84 29.4433 150.942 29.4306C151.045 29.4054 151.113 29.38 151.147 29.3546L151.216 29.3355C151.239 29.4117 151.25 29.5258 151.25 29.678C151.25 30.2108 151.011 30.712 150.532 31.1813C150.054 31.6381 149.404 31.8663 148.584 31.8663C147.456 31.8663 146.562 31.5111 145.901 30.8007C145.24 30.0903 144.91 29.1452 144.91 27.9654C144.91 26.976 145.149 26.0436 145.627 25.1682C146.106 24.2929 146.812 23.5064 147.747 22.8087C148.692 22.0983 149.934 21.5401 151.472 21.1342C153.022 20.7282 154.788 20.5252 156.77 20.5252C161.259 20.5252 164.62 21.3371 166.853 22.9609C169.097 24.572 170.22 26.773 170.22 29.5639C170.22 30.9466 169.855 32.228 169.126 33.4077C168.408 34.5875 167.457 35.5389 166.272 36.262C165.098 36.9724 163.811 37.4291 162.41 37.6321ZM182.661 20.5252C183.926 20.5252 184.74 20.8487 185.105 21.4957C185.47 22.1299 185.532 23.221 185.293 24.7686L182.012 45.6622C181.886 46.4742 181.818 47.1909 181.807 47.8124C181.807 48.4214 181.835 48.8337 181.892 49.0494L181.978 49.3728C181.602 49.6266 180.935 49.7534 179.978 49.7534C178.713 49.7534 177.899 49.4363 177.534 48.802C177.17 48.1551 177.107 47.0576 177.346 45.51L180.645 24.5783C180.758 23.7157 180.815 23.0814 180.815 22.6755H180.457C178.941 22.6755 177.768 23.0814 176.936 23.8933C176.116 24.6925 175.706 25.6883 175.706 26.8808C175.706 27.4263 175.831 27.864 176.082 28.1938C176.332 28.5109 176.674 28.6696 177.107 28.6696C177.221 28.6696 177.329 28.6632 177.432 28.6505C177.534 28.6252 177.603 28.6061 177.637 28.5934L177.705 28.5553C177.728 28.6315 177.739 28.7456 177.739 28.8978C177.739 29.4306 177.5 29.9318 177.021 30.4011C176.543 30.8579 175.894 31.0862 175.073 31.0862C173.945 31.0862 173.051 30.731 172.39 30.0205C171.729 29.3102 171.399 28.365 171.399 27.1852C171.399 25.2063 172.179 23.6016 173.74 22.371C175.301 21.1405 177.46 20.5252 180.217 20.5252H182.661ZM197.939 42.6938C197.734 44.0004 197.717 44.9392 197.888 45.51C198.07 46.0809 198.452 46.3663 199.033 46.3663C199.808 46.3663 200.657 45.5861 201.58 44.0258C202.992 41.6535 204.274 38.7231 205.425 35.2344C206.576 31.7458 207.43 28.143 207.988 24.4261C208.102 23.6649 208.159 22.9926 208.159 22.4091C208.159 21.8128 208.131 21.4132 208.074 21.2102L207.988 20.9058C208.364 20.652 209.031 20.5252 209.988 20.5252C211.252 20.5252 212.061 20.8423 212.415 21.4767C212.779 22.111 212.842 23.2083 212.603 24.7686L209.8 43.2075C209.64 44.2731 209.657 45.066 209.851 45.5861C210.045 46.1062 210.358 46.3663 210.791 46.3663C211.133 46.3663 211.429 46.2522 211.68 46.0238C211.942 45.7954 212.124 45.5417 212.227 45.2626C212.432 45.2626 212.603 45.3577 212.739 45.548C212.876 45.7256 212.927 45.973 212.893 46.2901C212.802 47.1655 212.346 47.9648 211.526 48.6878C210.717 49.3982 209.783 49.7534 208.723 49.7534C207.664 49.7534 206.792 49.3411 206.108 48.5166C205.425 47.692 205.083 46.6518 205.083 45.3958C205.083 43.8608 205.225 42.2116 205.51 40.4484C204.747 42.3005 203.938 44.0131 203.083 45.5861C201.557 48.3643 199.654 49.7534 197.375 49.7534C196.122 49.7534 195.114 49.3094 194.351 48.4214C193.599 47.5334 193.223 46.3663 193.223 44.9201C193.223 43.7276 193.337 42.3513 193.564 40.7909L196.128 24.5783C196.242 23.7157 196.299 23.0814 196.299 22.6755H195.94C194.425 22.6755 193.251 23.0814 192.419 23.8933C191.599 24.6925 191.189 25.6883 191.189 26.8808C191.189 27.4263 191.314 27.864 191.565 28.1938C191.816 28.5109 192.157 28.6696 192.59 28.6696C192.704 28.6696 192.812 28.6632 192.915 28.6505C193.018 28.6252 193.086 28.6061 193.12 28.5934L193.188 28.5553C193.211 28.6315 193.223 28.7456 193.223 28.8978C193.223 29.4306 192.983 29.9318 192.505 30.4011C192.026 30.8579 191.377 31.0862 190.557 31.0862C189.429 31.0862 188.534 30.731 187.874 30.0205C187.213 29.3102 186.882 28.365 186.882 27.1852C186.882 25.2063 187.663 23.6016 189.224 22.371C190.785 21.1405 192.944 20.5252 195.701 20.5252H198.145C199.409 20.5252 200.224 20.8487 200.588 21.4957C200.964 22.1299 201.027 23.221 200.776 24.7686L197.939 42.6938ZM223.557 27.8132C223.933 26.3417 224.229 25.035 224.446 23.8933C224.674 22.7389 224.805 21.9523 224.839 21.5338L224.89 20.9058C225.426 20.652 226.092 20.5252 226.89 20.5252C227.972 20.5252 228.724 20.779 229.146 21.2864C229.578 21.7811 229.818 22.7325 229.863 24.1407L230.598 43.2837L238.254 25.4727C239.075 23.5952 239.576 22.0729 239.758 20.9058C240.134 20.652 240.801 20.5252 241.758 20.5252C243.022 20.5252 243.837 20.8487 244.202 21.4957C244.566 22.1426 244.629 23.2337 244.39 24.7686L241.519 43.1314C241.359 44.2224 241.422 45.0343 241.707 45.567C242.003 46.0999 242.464 46.3663 243.091 46.3663C243.615 46.3663 244.145 46.1506 244.68 45.7194C245.227 45.2753 245.66 44.8186 245.979 44.3493C246.298 43.8798 246.56 43.4232 246.765 42.9792C247.278 42.9792 247.5 43.3153 247.432 43.9877C247.352 44.584 247.124 45.2182 246.748 45.8906C246.372 46.5629 245.905 47.1909 245.347 47.7745C244.8 48.3453 244.145 48.821 243.381 49.2016C242.618 49.5695 241.855 49.7534 241.091 49.7534C239.838 49.7534 238.824 49.3157 238.049 48.4404C237.286 47.5651 236.904 46.3917 236.904 44.9201C236.904 43.4613 237.064 41.6535 237.383 39.4969L239.177 28.1557L231.863 45.3577C231.589 45.9921 231.35 46.6264 231.145 47.2606C230.951 47.8949 230.82 48.3706 230.752 48.6878L230.667 49.1635C230.131 49.5568 229.396 49.7534 228.462 49.7534C227.573 49.7534 226.969 49.4363 226.65 48.802C226.331 48.1551 226.143 47.1592 226.086 45.8145L225.386 28.0035L221.917 42.3132C221.267 44.9898 220.509 46.8991 219.644 48.0408C218.789 49.1825 217.764 49.7534 216.567 49.7534C215.781 49.7534 215.155 49.4806 214.688 48.9351C214.209 48.377 213.97 47.6475 213.97 46.7469C213.97 46.3409 214.01 45.9794 214.089 45.6622C214.169 45.3324 214.255 45.1104 214.346 44.9962L214.465 44.8059C214.716 45.0089 215.12 45.1104 215.679 45.1104C216.488 45.1104 217.183 44.882 217.764 44.4253C218.345 43.956 218.937 43.0744 219.541 41.7804C220.145 40.4738 220.749 38.6469 221.353 36.3001L223.557 27.8132Z" fill="white"/>
<path d="M32.144 42.0054C32.9497 42.1649 33.9613 42.2446 35.1787 42.2446C38.2402 42.2446 40.7288 40.9788 42.6445 38.4471C44.5602 35.8953 45.5181 32.6759 45.5181 28.7886C45.5181 24.9013 44.3454 21.8214 42 19.5487C39.6725 17.2562 36.2082 16.11 31.6069 16.11C29.6196 16.11 27.8651 16.3492 26.3433 16.8276C24.8215 17.3061 23.6219 17.9341 22.7446 18.7115C21.8853 19.4889 21.2407 20.3262 20.811 21.2233C20.3813 22.1004 20.1665 23.0074 20.1665 23.9444C20.1665 24.8017 20.3634 25.4893 20.7573 26.0076C21.1512 26.506 21.6883 26.7552 22.3687 26.7552C22.5477 26.7552 22.7178 26.7453 22.8789 26.7254C23.04 26.6855 23.1475 26.6455 23.2012 26.6057L23.3086 26.5758C23.3444 26.6954 23.3623 26.8748 23.3623 27.1141C23.3623 27.9513 22.9863 28.7387 22.2344 29.4764C21.4824 30.194 20.4619 30.5529 19.1729 30.5529C17.4004 30.5529 15.995 29.9947 14.9565 28.8784C13.9181 27.7619 13.3989 26.2768 13.3989 24.4229C13.3989 23.1869 13.6317 22.0107 14.0972 20.8943C14.5448 19.758 15.2609 18.6916 16.2456 17.6948C17.2303 16.698 18.4299 15.8309 19.8442 15.0933C21.2586 14.3557 22.9863 13.7776 25.0273 13.359C27.0684 12.9403 29.3153 12.731 31.7681 12.731C35.492 12.731 38.7505 13.1497 41.5435 13.9869C44.3364 14.8043 46.5654 15.9704 48.2305 17.4855C49.8955 18.9806 51.1309 20.705 51.9365 22.6586C52.7601 24.5923 53.1719 26.7552 53.1719 29.1475C53.1719 34.0115 51.6501 37.9786 48.6064 41.0485C45.5628 44.0986 41.5256 45.6236 36.4946 45.6236C34.8475 45.6236 33.2362 45.4741 31.6606 45.1751L30.5596 52.2321C30.3626 53.5079 30.2552 54.6343 30.2373 55.611C30.2373 56.5679 30.2821 57.2158 30.3716 57.5546L30.5059 58.063C29.915 58.4618 28.8677 58.6611 27.3638 58.6611C25.3765 58.6611 24.0964 58.1627 23.5234 57.1659C22.9684 56.1692 22.8789 54.4449 23.2549 51.9928L27.3638 25.5891C27.5607 24.3331 27.6592 23.2268 27.6592 22.2699C27.6771 21.313 27.6413 20.6652 27.5518 20.3262L27.4175 19.8478C28.0083 19.4291 29.0557 19.2198 30.5596 19.2198C32.5469 19.2198 33.827 19.7282 34.3999 20.7449C34.9728 21.7415 35.0713 23.456 34.6953 25.8881L32.144 42.0054Z" fill="#456763"/>
</svg>
